<?xml version="1.0" encoding="utf-8"?>
<svg id="master-artboard" viewBox="-5 -2 20 20" xmlns="http://www.w3.org/2000/svg" width="13" height="14" version="1.1" style="shape-rendering:geometricPrecision; text-rendering:geometricPrecision; image-rendering:optimizeQuality; fill-rule:evenodd; clip-rule:evenodd"><rect id="ee-background" x="0" y="0" width="13.051674842834473" height="14.213160514831543" style="fill: white; fill-opacity: 0; pointer-events: none;"/>
 
 <metadata id="CorelCorpID_0Corel-Layer"/>
<g transform="matrix(0.2977431118488312, 0, 0, 0.3828125, 24.557166576385498, 24.64858627319336)"><desc>Created with Fabric.js 3.6.3</desc><g transform="matrix(0.06026418879628182, 0, 0, 0.04873298853635789, -60.43830009850427, -47.492622715435786)">
<g style="">
		<g transform="matrix(1 0 0 1 0 0)" id="Capa_1">
<path style="stroke: rgb(101, 101, 101); stroke-width: 1; stroke-dasharray: none; stroke-linecap: butt; stroke-dashoffset: 0; stroke-linejoin: miter; stroke-miterlimit: 4; fill: rgb(101, 101, 101); fill-rule: nonzero; opacity: 1;" transform=" translate(-241.21, -241.21)" d="M 381.163 57.799 h -75.094 C 302.323 25.316 274.686 0 241.214 0 c -33.471 0 -61.104 25.315 -64.85 57.799 h -75.098 c -30.39 0 -55.111 24.728 -55.111 55.117 v 2.828 c 0 23.223 14.46 43.1 34.83 51.199 v 260.369 c 0 30.39 24.724 55.117 55.112 55.117 h 210.236 c 30.389 0 55.111 -24.729 55.111 -55.117 V 166.944 c 20.369 -8.1 34.83 -27.977 34.83 -51.199 v -2.828 C 436.274 82.527 411.551 57.799 381.163 57.799 z M 241.214 26.139 c 19.037 0 34.927 13.645 38.443 31.66 h -76.879 C 206.293 39.783 222.184 26.139 241.214 26.139 z M 375.305 427.312 c 0 15.978 -13 28.979 -28.973 28.979 H 136.096 c -15.973 0 -28.973 -13.002 -28.973 -28.979 V 170.861 h 268.182 V 427.312 z M 410.135 115.744 c 0 15.978 -13 28.979 -28.973 28.979 H 101.266 c -15.973 0 -28.973 -13.001 -28.973 -28.979 v -2.828 c 0 -15.978 13 -28.979 28.973 -28.979 h 279.897 c 15.973 0 28.973 13.001 28.973 28.979 V 115.744 z" stroke-linecap="round"/>
</g>
		<g transform="matrix(1 0 0 1 -70.07 95)" id="Capa_1">
<path style="stroke: rgb(101, 101, 101); stroke-width: 1; stroke-dasharray: none; stroke-linecap: butt; stroke-dashoffset: 0; stroke-linejoin: miter; stroke-miterlimit: 4; fill: rgb(101, 101, 101); fill-rule: nonzero; opacity: 1;" transform=" translate(-171.14, -336.22)" d="M 171.144 422.863 c 7.218 0 13.069 -5.853 13.069 -13.068 V 262.641 c 0 -7.216 -5.852 -13.07 -13.069 -13.07 c -7.217 0 -13.069 5.854 -13.069 13.07 v 147.154 C 158.074 417.012 163.926 422.863 171.144 422.863 z" stroke-linecap="round"/>
</g>
		<g transform="matrix(1 0 0 1 0 95)" id="Capa_1">
<path style="stroke: rgb(101, 101, 101); stroke-width: 1; stroke-dasharray: none; stroke-linecap: butt; stroke-dashoffset: 0; stroke-linejoin: miter; stroke-miterlimit: 4; fill: rgb(101, 101, 101); fill-rule: nonzero; opacity: 1;" transform=" translate(-241.21, -336.22)" d="M 241.214 422.863 c 7.218 0 13.07 -5.853 13.07 -13.068 V 262.641 c 0 -7.216 -5.854 -13.07 -13.07 -13.07 c -7.217 0 -13.069 5.854 -13.069 13.07 v 147.154 C 228.145 417.012 233.996 422.863 241.214 422.863 z" stroke-linecap="round"/>
</g>
		<g transform="matrix(1 0 0 1 70.07 95)" id="Capa_1">
<path style="stroke: rgb(101, 101, 101); stroke-width: 1; stroke-dasharray: none; stroke-linecap: butt; stroke-dashoffset: 0; stroke-linejoin: miter; stroke-miterlimit: 4; fill: rgb(101, 101, 101); fill-rule: nonzero; opacity: 1;" transform=" translate(-311.28, -336.22)" d="M 311.284 422.863 c 7.217 0 13.068 -5.853 13.068 -13.068 V 262.641 c 0 -7.216 -5.852 -13.07 -13.068 -13.07 c -7.219 0 -13.07 5.854 -13.07 13.07 v 147.154 C 298.213 417.012 304.067 422.863 311.284 422.863 z" stroke-linecap="round"/>
</g>
</g>
</g></g></svg>