<?xml version="1.0" encoding="UTF-8"?>
<svg xmlns="http://www.w3.org/2000/svg" xmlns:xlink="http://www.w3.org/1999/xlink" width="48px" height="48px" viewBox="-6 -3 25 20" version="1.1">
<g id="surface1">
<path style="fill-rule:evenodd;fill:rgb(39.607843%,39.607843%,39.607843%);fill-opacity:1;stroke-width:1;stroke-linecap:butt;stroke-linejoin:miter;stroke:rgb(39.607843%,39.607843%,39.607843%);stroke-opacity:1;stroke-miterlimit:4;" d="M 15.499267 1.937948 C 15.696152 2.134833 15.696152 2.452035 15.499267 2.643451 L 14.460156 3.688031 L 12.458498 1.691843 L 13.503079 0.647262 C 13.699963 0.450378 14.011697 0.450378 14.208581 0.647262 Z M 13.754653 4.393534 L 11.752996 2.397345 L 4.93861 9.211731 C 4.88392 9.266421 4.840168 9.332049 4.818292 9.408615 L 4.014347 11.820449 C 3.981533 11.907953 4.008878 12.006395 4.074506 12.077492 C 4.140135 12.14312 4.238577 12.164996 4.33155 12.137651 L 6.743383 11.333707 C 6.81448 11.306362 6.885577 11.268079 6.940267 11.213389 L 13.754653 4.399003 Z M 13.754653 4.393534 " transform="matrix(0.714252,0,0,0.714252,0.894464,0.631442)"/>
<path style="fill-rule:evenodd;fill:rgb(39.607843%,39.607843%,39.607843%);fill-opacity:1;stroke-width:1;stroke-linecap:butt;stroke-linejoin:miter;stroke:rgb(39.607843%,39.607843%,39.607843%);stroke-opacity:1;stroke-miterlimit:4;" d="M 1.000923 13.499435 C 1.000923 14.330724 1.673611 14.997943 2.499432 14.997943 L 13.49761 14.997943 C 14.328899 14.997943 15.001588 14.330724 15.001588 13.499435 L 15.001588 7.499931 C 15.001588 7.226481 14.777358 7.002251 14.498439 7.002251 C 14.224988 7.002251 14.000759 7.226481 14.000759 7.499931 L 14.000759 13.499435 C 14.000759 13.778354 13.776529 14.002583 13.49761 14.002583 L 2.499432 14.002583 C 2.225981 14.002583 2.001752 13.778354 2.001752 13.499435 L 2.001752 2.501256 C 2.001752 2.222337 2.225981 1.998108 2.499432 1.998108 L 9.002084 1.998108 C 9.275535 1.998108 9.499764 1.773878 9.499764 1.500428 C 9.499764 1.221508 9.275535 0.997279 9.002084 0.997279 L 2.499432 0.997279 C 1.673611 0.997279 1.000923 1.669967 1.000923 2.501256 Z M 1.000923 13.499435 " transform="matrix(0.714252,0,0,0.714252,0.894464,0.631442)"/>
</g>
</svg>
