<?xml version="1.0" encoding="UTF-8" standalone="no" ?>
<!DOCTYPE svg PUBLIC "-//W3C//DTD SVG 1.1//EN" "http://www.w3.org/Graphics/SVG/1.1/DTD/svg11.dtd">
<svg xmlns="http://www.w3.org/2000/svg" xmlns:xlink="http://www.w3.org/1999/xlink" version="1.1" width="48" height="48" viewBox="0 0 48 48" xml:space="preserve">
<desc>Created with Fabric.js 4.2.0</desc>
<defs>
</defs>
<rect x="0" y="0" width="100%" height="100%" fill="transparent"></rect>
<g transform="matrix(1 0 0 1 24 24)" id="f26f241c-263a-4955-b947-4d5ab68e1868"  >
<rect style="stroke: none; stroke-width: 1; stroke-dasharray: none; stroke-linecap: butt; stroke-dashoffset: 0; stroke-linejoin: miter; stroke-miterlimit: 4; fill: rgb(255,255,255); fill-opacity: 0; fill-rule: nonzero; opacity: 1; visibility: hidden;" vector-effect="non-scaling-stroke"  x="-24" y="-24" rx="0" ry="0" width="48" height="48" />
</g>
<g transform="matrix(Infinity NaN NaN Infinity 0 0)" id="bf94edea-a878-4a03-b54b-bd8ef52e5cc8"  >
</g>
<g transform="matrix(0.26 0 0 0.26 24 24)"  >
<g style="" vector-effect="non-scaling-stroke"   >
		<g transform="matrix(1 0 0 1 -15.06 3.04)"  >
<path style="stroke: none; stroke-width: 1; stroke-dasharray: none; stroke-linecap: butt; stroke-dashoffset: 0; stroke-linejoin: miter; stroke-miterlimit: 4; fill: rgb(101,101,101); fill-rule: nonzero; opacity: 1;" vector-effect="non-scaling-stroke"  transform=" translate(-34.94, -53.04)" d="M 16.583 30.762 L 42.528 30.762 C 43.985 30.762 45.179 31.853 45.336999999999996 33.205 L 40.708999999999996 37.884 C 39.409 39.133 38.785 40.797 38.785 42.461 C 38.785 42.721 38.785 42.981 38.836999999999996 43.24 L 28.698 43.24 C 26.826 43.24 24.85 44.801 24.279 46.672000000000004 L 16.114 75.322 C 14.763000000000002 75.114 13.722000000000001 73.96900000000001 13.722000000000001 72.565 L 13.722000000000001 33.569 C 13.723 32.008 15.023 30.762 16.583 30.762 z M 56.151 43.24 L 56.047000000000004 43.24 L 56.151 43.188 L 56.151 43.24 z" stroke-linecap="round" />
</g>
		<g transform="matrix(1 0 0 1 2.28 13)"  >
<path style="stroke: none; stroke-width: 1; stroke-dasharray: none; stroke-linecap: butt; stroke-dashoffset: 0; stroke-linejoin: miter; stroke-miterlimit: 4; fill: rgb(101,101,101); fill-rule: nonzero; opacity: 1;" vector-effect="non-scaling-stroke"  transform=" translate(-52.28, -63)" d="M 86.153 49.011 L 78.19600000000001 76.98400000000001 C 77.67600000000002 78.64800000000001 75.909 80.052 74.24500000000002 80.052 L 20.585000000000022 80.052 C 18.923000000000023 80.052 17.934000000000022 78.64800000000001 18.403000000000024 76.98400000000001 L 26.410000000000025 49.01100000000001 C 26.878000000000025 47.34700000000001 28.646000000000026 45.94300000000001 30.362000000000023 45.94300000000001 L 39.77400000000002 45.94300000000001 C 40.03400000000002 46.360000000000014 40.34500000000002 46.72400000000001 40.709000000000024 47.088000000000015 L 40.709000000000024 47.140000000000015 C 42.99700000000002 49.271000000000015 46.532000000000025 47.91900000000002 50.58800000000002 45.94300000000001 L 56.15200000000002 45.94300000000001 L 56.15200000000002 65.23400000000001 C 56.15200000000002 67.93900000000001 58.38700000000002 70.174 61.090000000000025 70.174 L 65.87400000000002 70.174 C 68.57700000000003 70.174 70.76300000000002 67.93900000000001 70.76300000000002 65.23400000000001 L 70.76300000000002 45.943 L 75.49300000000002 45.943 C 79.39300000000003 47.867 82.87700000000002 49.114999999999995 85.32000000000002 47.242999999999995 L 85.42400000000002 47.190999999999995 L 85.52800000000002 47.086999999999996 C 85.63200000000002 46.983 85.73600000000002 46.879 85.78800000000003 46.775 C 86.258 47.295 86.411 48.128 86.153 49.011 z" stroke-linecap="round" />
</g>
		<g transform="matrix(1 0 0 1 13.1 -5.82)"  >
<path style="stroke: none; stroke-width: 1; stroke-dasharray: none; stroke-linecap: butt; stroke-dashoffset: 0; stroke-linejoin: miter; stroke-miterlimit: 4; fill: rgb(101,101,101); fill-rule: nonzero; opacity: 1;" vector-effect="non-scaling-stroke"  transform=" translate(-63.1, -44.18)" d="M 84.28 45.839 C 86.099 43.967 86.099 40.952 84.28 39.132 L 66.445 21.35 C 64.62599999999999 19.478 61.61099999999999 19.478 59.73899999999999 21.35 L 41.957 39.132 C 40.085 40.952 40.085 43.967 41.957 45.839 C 44.504 48.233 51.574 42.98 57.919 40.485 L 57.919 65.234 C 57.919 67.002 59.373999999999995 68.40599999999999 61.089999999999996 68.40599999999999 L 65.874 68.40599999999999 C 67.591 68.40599999999999 68.993 67.002 68.993 65.234 L 68.993 40.796 C 75.026 43.344 81.421 48.024 84.28 45.839 z" stroke-linecap="round" />
</g>
		<g transform="matrix(1 0 0 1 13.1 -5.82)"  >
<path style="stroke: none; stroke-width: 1; stroke-dasharray: none; stroke-linecap: butt; stroke-dashoffset: 0; stroke-linejoin: miter; stroke-miterlimit: 4; fill: rgb(101,101,101); fill-rule: nonzero; opacity: 1;" vector-effect="non-scaling-stroke"  transform=" translate(-63.1, -44.18)" d="M 84.28 45.839 C 86.099 43.967 86.099 40.952 84.28 39.132 L 66.445 21.35 C 64.62599999999999 19.478 61.61099999999999 19.478 59.73899999999999 21.35 L 41.957 39.132 C 40.085 40.952 40.085 43.967 41.957 45.839 C 44.504 48.233 51.574 42.98 57.919 40.485 L 57.919 65.234 C 57.919 67.002 59.373999999999995 68.40599999999999 61.089999999999996 68.40599999999999 L 65.874 68.40599999999999 C 67.591 68.40599999999999 68.993 67.002 68.993 65.234 L 68.993 40.796 C 75.026 43.344 81.421 48.024 84.28 45.839 z" stroke-linecap="round" />
</g>
</g>
</g>
</svg>